<svg width="250" height="235" viewBox="0 0 250 235" fill="none" xmlns="http://www.w3.org/2000/svg">
<path d="M141.89 78.125C132.036 78.125 89.7314 79.0918 62.5 120.093V78.125C62.5 52.2754 41.4746 31.25 15.625 31.25C6.99707 31.25 0 38.2471 0 46.875C0 55.5029 6.99707 62.5 15.625 62.5C24.2383 62.5 31.25 69.5117 31.25 78.125V203.125C31.25 220.361 45.2637 234.375 62.5 234.375H148.438C152.754 234.375 156.25 230.879 156.25 226.562V218.75C156.25 210.122 149.253 203.125 140.625 203.125H125L187.5 156.25V226.562C187.5 230.879 190.996 234.375 195.312 234.375H210.938C215.254 234.375 218.75 230.879 218.75 226.562V125.908C213.726 127.212 208.55 128.125 203.125 128.125C172.944 128.125 147.695 106.616 141.89 78.125ZM218.75 31.25H187.5L156.25 0V65.625C156.25 91.5137 177.236 112.5 203.125 112.5C229.014 112.5 250 91.5137 250 65.625V0L218.75 31.25ZM183.594 70.3125C179.277 70.3125 175.781 66.8164 175.781 62.5C175.781 58.1836 179.277 54.6875 183.594 54.6875C187.91 54.6875 191.406 58.1836 191.406 62.5C191.406 66.8164 187.91 70.3125 183.594 70.3125ZM222.656 70.3125C218.34 70.3125 214.844 66.8164 214.844 62.5C214.844 58.1836 218.34 54.6875 222.656 54.6875C226.973 54.6875 230.469 58.1836 230.469 62.5C230.469 66.8164 226.973 70.3125 222.656 70.3125Z" fill="#70CDFF"/>
</svg>
