<svg width="250" height="235" viewBox="0 0 250 235" fill="none" xmlns="http://www.w3.org/2000/svg">
<path d="M129.912 93.764L203.125 119.911V226.576C203.125 228.648 202.302 230.636 200.837 232.101C199.372 233.566 197.385 234.389 195.312 234.389H164.062C161.99 234.389 160.003 233.566 158.538 232.101C157.073 230.636 156.25 228.648 156.25 226.576V171.889H78.125V226.576C78.125 228.648 77.3019 230.636 75.8368 232.101C74.3716 233.566 72.3845 234.389 70.3125 234.389H39.0625C36.9905 234.389 35.0034 233.566 33.5382 232.101C32.0731 230.636 31.25 228.648 31.25 226.576V122.128C13.1055 115.658 0 98.4808 0 78.139C0 73.9949 1.6462 70.0207 4.57646 67.0904C7.50671 64.1602 11.481 62.514 15.625 62.514C19.769 62.514 23.7433 64.1602 26.6735 67.0904C29.6038 70.0207 31.25 73.9949 31.25 78.139C31.2577 82.2806 32.9064 86.2504 35.835 89.1789C38.7636 92.1075 42.7334 93.7562 46.875 93.764H129.912ZM250 39.0765V54.7015C250 62.9895 246.708 70.938 240.847 76.7985C234.987 82.6591 227.038 85.9515 218.75 85.9515H203.125V103.325L140.625 81.0052V7.82646C140.625 0.868447 149.033 -2.61788 153.96 2.30399L167.28 15.639H193.467C198.794 15.639 205.063 19.5061 207.441 24.2767L210.938 31.264H242.188C244.26 31.264 246.247 32.0871 247.712 33.5522C249.177 35.0173 250 37.0045 250 39.0765ZM195.312 39.0765C195.312 37.5313 194.854 36.0208 193.996 34.7361C193.137 33.4513 191.917 32.45 190.49 31.8586C189.062 31.2673 187.491 31.1126 185.976 31.4141C184.46 31.7155 183.068 32.4596 181.976 33.5522C180.883 34.6448 180.139 36.0368 179.838 37.5523C179.536 39.0678 179.691 40.6386 180.282 42.0662C180.874 43.4937 181.875 44.7139 183.16 45.5723C184.444 46.4308 185.955 46.889 187.5 46.889C189.572 46.889 191.559 46.0659 193.024 44.6007C194.489 43.1356 195.312 41.1485 195.312 39.0765Z" fill="#70CDFF"/>
</svg>
