<svg width="40" height="35" viewBox="0 0 40 35" fill="none" xmlns="http://www.w3.org/2000/svg">
<path d="M20.0004 15.0004C13.7965 15.0004 5.00055 24.5909 5.00055 30.6448C5.00055 33.3713 7.09506 35.0002 10.6052 35.0002C14.4208 35.0002 16.9403 33.0408 20.0004 33.0408C23.0871 33.0408 25.6136 35.0002 29.3956 35.0002C32.9057 35.0002 35.0002 33.3713 35.0002 30.6448C35.0002 24.5909 26.2042 15.0004 20.0004 15.0004ZM8.49426 14.0152C7.68177 11.3082 5.17867 9.55514 2.90369 10.0989C0.628718 10.6426 -0.556426 13.2778 0.256066 15.9848C1.06856 18.6918 3.57166 20.4449 5.84663 19.9011C8.12161 19.3574 9.30675 16.7222 8.49426 14.0152ZM15.1129 12.3918C17.5301 11.7559 18.7395 8.4903 17.8145 5.09815C16.8895 1.706 14.1801 -0.527569 11.763 0.108362C9.34581 0.744293 8.13645 4.00988 9.06144 7.40204C9.98643 10.7942 12.6966 13.0285 15.1129 12.3918ZM37.0963 10.0997C34.8213 9.55592 32.319 11.309 31.5057 14.016C30.6932 16.723 31.8784 19.3582 34.1534 19.9019C36.4283 20.4456 38.9307 18.6925 39.7439 15.9855C40.5564 13.2785 39.3713 10.6434 37.0963 10.0997ZM24.8878 12.3918C27.305 13.0278 30.0143 10.7942 30.9393 7.40204C31.8643 4.00988 30.655 0.745074 28.2378 0.108362C25.8206 -0.52835 23.1113 1.706 22.1863 5.09815C21.2613 8.4903 22.4707 11.7559 24.8878 12.3918Z" fill="white"/>
</svg>
