<svg width="250" height="219" viewBox="0 0 250 219" fill="none" xmlns="http://www.w3.org/2000/svg">
<path d="M125.002 93.7525C86.2284 93.7525 31.2534 153.693 31.2534 191.53C31.2534 208.571 44.3441 218.751 66.2823 218.751C90.1298 218.751 105.877 206.505 125.002 206.505C144.294 206.505 160.085 218.751 183.723 218.751C205.661 218.751 218.751 208.571 218.751 191.53C218.751 153.693 163.776 93.7525 125.002 93.7525ZM53.0891 87.5953C48.0111 70.6765 32.3667 59.7196 18.1481 63.118C3.92949 66.5164 -3.47766 82.986 1.60041 99.9047C6.67848 116.824 22.3228 127.78 36.5415 124.382C50.7601 120.984 58.1672 104.514 53.0891 87.5953ZM94.4559 77.4489C109.563 73.4743 117.122 53.0644 111.34 31.8635C105.559 10.6625 88.6259 -3.2973 73.5186 0.677263C58.4113 4.65183 50.8528 25.0618 56.634 46.2627C62.4152 67.4637 79.3535 81.4284 94.4559 77.4489ZM231.852 63.1229C217.633 59.7245 201.994 70.6814 196.911 87.6002C191.833 104.519 199.24 120.988 213.459 124.387C227.677 127.785 243.317 116.828 248.4 99.9096C253.478 82.9909 246.07 66.5213 231.852 63.1229ZM155.549 77.4489C170.656 81.4235 187.59 67.4637 193.371 46.2627C199.152 25.0618 191.594 4.65671 176.486 0.677263C161.379 -3.30219 144.446 10.6625 138.664 31.8635C132.883 53.0644 140.442 73.4743 155.549 77.4489Z" fill="#70CDFF"/>
</svg>
